<svg xmlns="http://www.w3.org/2000/svg" width="1254" height="1254"><circle cx="627" cy="627" r="617" fill="#35383D"/><path fill="none" d="M0 0h1254v1254H0zm577 65-3.582.375C484.948 74.928 398.339 105.33 325 156l-1.988 1.364C306.595 168.66 290.983 180.865 276 194c-.755.655-1.51 1.31-2.29 1.984A752 752 0 0 0 268 201l-2.457 2.176c-4.41 3.934-8.698 7.926-12.832 12.148-1.835 1.797-3.753 3.452-5.711 5.113-3.41 2.938-6.312 6.1-9.219 9.528-1.845 2.109-3.782 4.071-5.781 6.035-3.88 3.836-7.455 7.855-11 12l-2.719 3.125c-6.53 7.524-12.836 15.186-18.906 23.087a634 634 0 0 1-2.731 3.525c-7.05 9.035-13.539 18.42-19.894 27.95l-1.14 1.707C129.233 376.974 100.11 455.804 85 563l-.261 2.502c-1.73 16.986-2.1 33.87-2.052 50.936l.006 3.997c.038 20.039.686 39.684 3.307 59.565q.254 2.061.504 4.122c9.378 76.829 34.192 149.355 74.309 215.628l1.08 1.788C166.343 908.888 171 916.014 176 923q1.412 2.03 2.816 4.063c13.888 19.966 28.94 39.375 45.586 57.128a209 209 0 0 1 5.606 6.332c4.807 5.516 10.009 10.643 15.189 15.804q2.604 2.6 5.2 5.206c5.7 5.704 11.456 11.24 17.603 16.467a1315 1315 0 0 1 4.625 4.25c5.04 4.548 10.324 8.717 15.688 12.871a330 330 0 0 1 7.25 5.79c9.742 7.988 19.939 15.13 30.437 22.089l2.523 1.678C339.805 1082.16 351.237 1089.3 363 1096c.703.403 1.405.806 2.13 1.22 77.292 44.188 166.273 68.48 263.808 68.967h2.974c16.116-.02 32.042-.588 48.088-2.187l3.068-.276c97.756-8.866 193.375-48.408 287.979-122.17a345 345 0 0 1 6.031-5.109c12.46-10.315 24.086-21.54 35.547-32.945l1.935-1.92c3.76-3.774 7.324-7.67 10.806-11.7 2.278-2.62 4.642-5.152 7.009-7.692 5.114-5.544 9.929-11.284 14.625-17.188l1.232-1.536c18.872-23.546 35.837-48.236 50.768-74.464l1.506-2.642c37.97-67.031 59.61-140.068 68.265-216.358q.309-2.678.631-5.355c4.193-36.04 2.874-73.666-1.402-109.645l-.422-3.695c-3.643-31.237-10.108-62.038-18.578-92.305l-1.07-3.835c-5.02-17.787-10.897-35.074-17.93-52.165l-1.158-2.825c-11.016-26.637-23.721-52.63-38.842-77.175l-1.577-2.583c-13.106-21.404-28.06-41.208-43.948-60.605a485 485 0 0 1-3.776-4.71c-10.718-13.444-23.012-25.507-35.137-37.665l-1.702-1.71c-6.105-6.128-12.244-12.145-18.86-17.727a2612 2612 0 0 1-3.492-3.027C968.784 184.005 955.586 173.875 942 164l-2.186-1.596C898.816 132.55 852.986 109.195 805 93l-3.375-1.16C758.035 76.924 712.85 68.033 667 64l-3.566-.315c-11.365-.88-22.729-.885-34.121-.873l-3.154.002C609.69 62.84 593.39 63.237 577 65" id="svg-layer-1" style="pointer-events: all;"/><path fill="#F4ECE3" d="M828 404c-.614 10.17-1.908 20.187-3.379 30.258l-.738 5.113q-1.002 6.928-2.02 13.852l-1.284 8.773c-6.712 45.876-14.136 91.634-21.655 137.383q-1.339 8.142-2.672 16.285c-4.162 25.396-4.162 25.396-5.98 36.41l-.634 3.853-1.143 6.912-.512 3.106-.498 2.98c-.35 2.216-.664 4.437-.956 6.662l-.48 3.56-.407 3.243C785 685 785 685 782.168 687.082c-1.38.348-2.771.648-4.168.918q-2.884.871-5.762 1.762-3.46.974-6.926 1.926l-3.785 1.041c-10.381 2.817-20.838 5.259-31.34 7.583l-2.248.5A1135 1135 0 0 1 713 704l-2.076.434c-2.04.422-4.08.83-6.123 1.234l-3.538.708c-14.782 2.382-29.928 1.77-44.845 1.757l-7.755.003q-8.1.002-16.2-.006-9.295-.006-18.589.002-9.024.007-18.049.002-3.801 0-7.602.002c-36.475.027-36.475.027-50.32-2.85l-2.628-.52c-2.782-.555-5.56-1.128-8.337-1.703l-2.913-.593a1004 1004 0 0 1-43.337-9.845l-2.56-.638q-3.591-.902-7.179-1.823l-2.093-.53q-1.961-.51-3.906-1.076a66 66 0 0 0-4.143-1.035c-2.25-.603-3.9-1.176-5.807-2.523-1.51-2.968-1.838-5.976-2.234-9.258l-.889-5.743-.429-3.004c-.576-3.847-1.302-7.655-2.042-11.472-.74-3.827-1.432-7.662-2.126-11.497a752 752 0 0 0-1.082-5.791 802 802 0 0 1-1.589-8.665l-.492-2.49c-4.03-23.305-.274-48.437 1.273-71.872.338-5.142.668-10.284 1-15.426q.834-12.91 1.682-25.82.979-14.925 1.94-29.849.928-14.409 1.867-28.818.399-6.117.793-12.234.464-7.176.938-14.352.174-2.634.342-5.27.232-3.585.472-7.172l.133-2.119c.2-2.925.51-5.35 1.443-8.148 10.398.377 20.662 1.368 30.992 2.594 42.883 5.01 85.246 6.617 128.403 6.426a4340 4340 0 0 1 15.756-.03c57.612-.058 114.501-2.777 171.803-9.05C820.68 404 820.68 404 828 404M606.332 788.559l2.196-.021q5.78-.054 11.561-.073 4.673-.02 9.345-.103c21.548-.373 40.82 1.607 61.566 7.638.857 4.633 1.294 9.233 1.587 13.928l.155 2.368q.254 3.918.501 7.837l.366 5.636q.496 7.677.986 15.352.521 8.13 1.047 16.26 1 15.506 1.994 31.01 1.108 17.264 2.222 34.527 1.912 29.66 3.81 59.323 1.155 18.074 2.334 36.147.514 7.862 1.021 15.725.322 4.973.65 9.944c1.625 24.564 1.625 24.564 1.327 34.943-46.487 11.865-134.666 21.667-180-1 .613-18.5 2.255-36.91 3.88-55.342q.371-4.218.74-8.435c3.803-43.507 7.807-86.996 11.802-130.486l1.29-14.058q1.359-14.813 2.725-29.624.463-5.018.923-10.035.535-5.84 1.077-11.679.197-2.126.39-4.252.267-2.9.537-5.798l.301-3.264c.336-3.034.804-6.021 1.335-9.027q6.156-1.189 12.313-2.375l3.478-.672 3.447-.664 3.127-.603L580 791l2.332-.51c7.991-1.648 15.862-1.87 24-1.931" id="svg-layer-2" style="pointer-events: all;"/><path fill="#F4ECE3" d="M931.162 363.917c16.069-.538 31.258.712 45.838 8.083l2.875 1.422c14.63 7.86 26.302 20.193 37.125 32.578l2.387 2.73c18.816 22.33 33.482 47.059 31.613 77.27-3.891 44.477-29.081 91.613-51.53 129.506a531 531 0 0 0-4.294 7.443C984.138 642.348 971.906 660.798 959 679l-1.804 2.547c-7.129 10.04-14.478 19.86-22.196 29.453l-1.53 1.913a758 758 0 0 1-22.981 27.369 172 172 0 0 0-3.06 3.635l-1.558 1.892-1.381 1.708c-2.657 2.644-5.065 3.418-8.74 3.983-8.963-1.195-15.661-10.1-21.796-16.285a831 831 0 0 0-4.554-4.541c-16.078-16.057-16.078-16.057-16.65-22.486.292-3.725.852-5.326 3.25-8.188 4.35-2.417 8.825-3.485 13.625-4.75 13.483-3.762 24.678-10.12 31.918-22.2 4.423-9.26 6.893-19.089 9.46-28.977 7.005-26.85 15.63-52.713 26.997-78.073l1.069-2.414c7.032-15.808 15.502-30.93 24.369-45.774 8.51-14.282 14.451-27.937 10.91-44.945-2.36-7.273-6.046-13.168-12.602-17.281-7.632-3.602-14.961-3.298-22.824-.484-6.384 2.93-11.252 6.677-16.324 11.484C898.698 488.796 853.15 515 820 515c.807-6.814 1.662-13.622 2.547-20.426q.457-3.605.875-7.214c.413-3.562.867-7.117 1.328-10.673l.364-3.394.433-3.156.339-2.79c1.382-2.912 2.884-3.547 5.853-4.625L834 462l2.664-.87a619 619 0 0 1 9.543-2.923l3.52-1.063q3.668-1.107 7.335-2.206c3.756-1.127 7.51-2.262 11.264-3.397l7.131-2.146 3.415-1.032 3.147-.942 2.776-.834C887 446 887 446 889 446l-.133-3.008c-.08-8.11.47-12.955 6.196-19.055 6.09-6.923 6.04-14.95 6.125-23.75l.063-2.06c.047-1.985.014-3.973-.02-5.959-.017-1.163-.034-2.325-.05-3.523-1.872-5.778-5.052-9.403-10.181-12.645-4.898-1.172-9.662-1.057-14.66-.879q-2.1.025-4.199.039a608 608 0 0 0-10.963.222c-3.74.093-7.482.133-11.223.179-7.32.096-14.637.249-21.955.439l3.21.586 4.165.789 2.117.383c5.281 1.015 5.281 1.015 7.508 3.242.135 2.063.135 2.063-.023 4.57l-.157 2.715-.195 2.84-.172 2.863A897 897 0 0 1 844 401h7v-19c4.286-1.429 8.312-1.135 12.803-1.037q2.464.04 4.929.043c3.07.01 6.136.062 9.206.119l3.051-.008c4.68.126 7.272.358 11.152 3.113 3.258 4.966 2.727 11.246 2.672 16.957l-.022 3.684c-.248 8.031-.84 13.442-6.58 19.363L886 426l-1.773 1.516c-3.746 2.637-7.646 3.071-12.086 2.89-3.271-.62-5.508-2.446-8.141-4.406h-4c1.74 4.01 3.73 5.794 7.426 8.027 5.009 1.893 10.309 1.334 15.574.973v6q-11.294 3.42-22.59 6.836-3.845 1.162-7.69 2.328-5.514 1.67-11.029 3.336l-3.497 1.06-3.215.971-2.847.862C830 457 830 457 829 457c.61-12.394 2.34-24.597 4.063-36.875l.853-6.168q1.035-7.48 2.084-14.957a484 484 0 0 0-18.68-8.227l-2.02-.84q-4.14-1.718-8.282-3.427-3.07-1.269-6.135-2.545l-3.644-1.506c-2.944-1.323-5.635-2.546-8.239-4.455-.437-3.562-.437-3.562 0-7 2.365-2.365 2.804-2.251 6.01-2.258l2.542-.021 2.797.008 2.943-.016q3.176-.015 6.353-.018 5.055-.008 10.112-.04c9.587-.056 19.175-.087 28.762-.111 5.864-.016 11.728-.047 17.592-.085q3.327-.018 6.655-.018c13.613 0 26.652-.884 40.085-3.11 6.077-.935 12.176-1.18 18.31-1.414M545 795c1 1 1 1 1.141 3.211-.004 8.172-.59 16.21-1.375 24.34l-.4 4.284q-.43 4.604-.87 9.207-.705 7.414-1.397 14.83-.995 10.618-1.998 21.236a38539 38539 0 0 0-5.422 57.977 11267 11267 0 0 0-9.116 103.04l-.288 3.423Q523.62 1056.272 522 1076c-36.451-5.03-73.711-20.978-106-38 .586-12.663 2.705-25.127 4.621-37.64l1.127-7.433q1.363-8.976 2.737-17.95 1.113-7.275 2.221-14.548A18456 18456 0 0 1 445.53 839.61l1.785-11.22q1.395-8.768 2.8-17.534l1.024-6.418q.696-4.355 1.397-8.709l.408-2.575c.51-3.15 1.045-6.121 2.056-9.155 30.841-7.028 60.937.239 90 11M784 784c2.817 14.106 5.017 28.314 7.27 42.518q1.745 10.997 3.5 21.993l.865 5.421a31034 31034 0 0 0 8.762 54.606l5.638 34.984c.2 1.234.398 2.468.603 3.74l1.193 7.395q1.447 8.968 2.882 17.938c1.623 10.142 3.256 20.282 4.974 30.409.703 4.151 1.395 8.304 2.085 12.458q.485 2.89.99 5.777c.455 2.614.891 5.231 1.323 7.85l.422 2.319c.814 5.12.814 5.12-.804 7.5-27.084 17.36-59.972 27.717-90.89 35.592l-3.024.774-2.832.695-2.47.607c-2.862.488-5.588.451-8.487.424l-.16-2.825q-1.092-19.15-2.215-38.3l-.19-3.253c-3.61-61.53-7.792-123.025-11.95-184.52a23584 23584 0 0 1-2.11-31.529l-.223-3.375c-.272-5.732-.233-11.462-.152-17.198 7.251-2.924 14.698-4.945 22.25-6.937l2.01-.531c21.43-5.634 38.684-9.196 60.74-4.532" id="svg-layer-3" style="pointer-events: all;"/><path fill="#F4ECE3" d="M466 697a134 134 0 0 1 16.23 2.82l4.885 1.125q3.723.863 7.443 1.737a655 655 0 0 0 13.051 2.916c4.521.963 8.983 2.073 13.456 3.237 31.086 7.665 63.357 6.229 95.145 6.065 5.719-.026 11.437-.017 17.156.013 68.296.343 68.296.343 98.634-7.913a549 549 0 0 1 6.044-1.402c4.777-1.083 9.524-2.258 14.269-3.473q3.487-.882 6.975-1.754 2.103-.525 4.201-1.065c4.164-1.051 8.259-1.764 12.511-2.306.163 7.328.287 14.655.363 21.985.036 3.404.086 6.806.165 10.21.091 3.916.125 7.833.156 11.75l.11 3.685c.003 8.185.003 8.185-2.172 11.419-9.02 8.21-23.702 10.224-35.247 12.889l-2.177.508c-37.4 8.698-74.821 12.782-113.198 12.741h-2.997c-126.975-.16-126.975-.16-155.003-28.187-.24-2.404-.24-2.404-.227-5.46v-3.457l.032-3.747.008-3.825q.016-5.036.05-10.071c.02-3.426.03-6.85.04-10.276q.033-10.082.097-20.164M374 391c4.827 1.413 8.716 3.43 13 6l-2 6-1.92.06c-24.05.79-42.523 3.568-61.08 19.94-1.824 2.266-1.824 2.266-3 4 3.413.28 5.374.413 8.281-1.504l2.219-2.058c13.7-11.603 28.675-14.983 46.25-14.625l3.883.04q4.684.053 9.367.147l.313-2.25c.763-3.054 1.503-4.496 3.687-6.75 2.449-.443 2.449-.443 5.39-.362l3.336.061 3.598.13 3.687.084c3.893.093 7.784.215 11.676.337q3.955.102 7.909.2c6.469.162 12.936.349 19.404.55.135 11.19-.256 22.266-.994 33.43l-.32 5.038q-.432 6.762-.874 13.524-.462 7.115-.916 14.23-.766 11.934-1.54 23.867a38691 38691 0 0 0-1.971 30.559 75361 75361 0 0 1-2.242 34.824q-.428 6.638-.86 13.275l-.313 4.849c-.545 8.479-1.135 16.947-1.97 25.404-2.926-2.72-4.895-5.261-6.742-8.797l-1.52-2.867-1.613-3.086c-4.51-8.488-9.167-16.854-14.062-25.125-5.56-9.417-10.805-18.97-15.951-28.618-5.024-9.4-10.281-18.65-15.606-27.881-2.107-3.674-4.183-7.365-6.26-11.056A2199 2199 0 0 0 352 454l-1.65-2.818-1.596-2.702-1.416-2.405c-4.552-7.058-11.55-9.196-19.338-11.075-6.633-1.223-13.313-2.128-20-3 3.452-6.236 7.402-11.546 12-17l2.39-2.875c5.91-6.838 11.922-12.229 20.61-15.125 2.138-.083 4.278-.107 6.418-.098l3.799.01 3.97.026q2.004.008 4.006.013 4.904.018 9.807.049zM570 226h111c-2.298 13.788-2.298 13.788-3.648 20.484l-.46 2.302q-.739 3.698-1.482 7.394l-1.046 5.228q-1.09 5.455-2.186 10.908-1.391 6.93-2.777 13.864a29664 29664 0 0 1-3.182 15.89l-.491 2.454-.48 2.397q-.464 2.304-.94 4.606c-.73 3.534-1.417 7.062-1.995 10.625l-.67 3.813-.532 3.328C660 332 660 332 657.074 333.833c-15.031 5.704-33.538 4.986-49.261 3.354l-2.157-.212c-6.064-.695-11.807-2.26-17.656-3.975a7642 7642 0 0 1-13.16-75.13l-1.022-5.99a9282 9282 0 0 1-1.912-11.263l-.586-3.431-.529-3.144-.465-2.744C570 229 570 229 570 226M600.008 344.654l3.687.21 2.002.09c2.144.101 4.286.23 6.428.358q4.38.232 8.762.43l2.159.102c5.414.22 10.538-.2 15.891-.906 6.226-.488 6.226-.488 9.754 1.832 2.42 2.599 4.34 5.277 6.309 8.23q2.162 2.677 4.375 5.313l2.242 2.769c2.59 3.172 5.23 6.298 7.883 9.418a830 830 0 0 1 12.09 14.59 369 369 0 0 0 5.601 6.601l1.66 1.915a743 743 0 0 0 3.252 3.712c2.216 2.546 3.818 4.446 4.897 7.682H553c4.492-7.862 4.492-7.862 6.629-10.621l1.43-1.869 1.504-1.947c4.086-5.366 8.031-10.79 11.812-16.375C580.65 366.93 587.312 357.96 594 349l1.267-2.24C597 345 597 345 600.008 344.654M665.293 344.71c2.665.931 5.308 1.909 7.95 2.903l2.992 1.107c3.216 1.191 6.428 2.392 9.64 3.592q3.36 1.248 6.722 2.492 6.675 2.474 13.346 4.952a2629 2629 0 0 0 20.86 7.625 4270 4270 0 0 1 29.842 10.92l3.088 1.142q7.55 2.794 15.098 5.596c11.022 4.088 22.068 8.09 33.169 11.961-3.885 2.59-7.467 2.617-11.998 2.977l-2.79.242c-3.048.263-6.096.512-9.146.761l-6.348.537q-6.656.562-13.313 1.107c-5.692.467-11.382.948-17.073 1.433q-6.555.555-13.112 1.098-3.148.263-6.295.53c-2.932.249-5.865.488-8.798.726l-2.634.228-2.426.191-2.1.174c-3.691-.007-5.507-.573-8.229-3.121l-2.426-2.758-1.326-1.499c-3.612-4.111-7.066-8.348-10.502-12.606-2.95-3.587-5.992-7.085-9.047-10.582a375 375 0 0 1-12.527-15.094c-2.83-3.474-5.872-6.746-8.93-10.02-1.977-2.32-3.49-4.67-4.98-7.324 3.62-1.81 7.581-.439 11.293.71M589 343c-1.627 5.08-4.677 8.953-7.812 13.188l-3.555 4.859-1.835 2.498a1302 1302 0 0 0-6.649 9.186c-7.3 10.15-14.698 20.23-22.149 30.269l-1.173 2.129C544 407 544 407 541.007 407.229l-3.66-.377-2.006-.189a325 325 0 0 1-4.216-.432c-2.043-.222-4.086-.42-6.133-.608-4.186-.39-8.368-.82-12.55-1.252l-4.577-.466q-5.94-.606-11.88-1.219-6.096-.625-12.19-1.247Q471.897 400.224 460 399v-2c36.638-18.98 74.365-34.801 112.777-49.816l2.4-.938C583.87 342.86 583.87 342.86 589 343" id="svg-layer-4" style="pointer-events: all;"/><path fill="#35383D" d="M506.773 805.934c5.334 3.493 9.957 7.042 11.817 13.351 1.706 8.788.416 16.825-2.465 25.215l-.827 2.445c-1.265 3.143-2.218 5.407-5.184 7.187-2.022.768-4.016 1.346-6.114 1.868l-2.406.95c-7.195 2.536-16.163 4.73-23.594 2.05-6.056-4.2-12.641-10.924-15-18-.491-9.249-.958-21.773 4.85-29.443 11.125-10.018 25.556-13.074 38.923-5.623" id="svg-layer-5" style="pointer-events: all;"/><path fill="#F4ECE3" d="m581 337 1 3c-50.324 15.365-100.986 29.467-151.725 43.387l-4.921 1.35q-6.996 1.92-13.993 3.834l-4.26 1.167-5.848 1.598-3.311.906c-5.285 1.362-8.45 1.918-13.755.32l-2.957-.87L379 391c2.868-1.912 4.65-2.574 7.927-3.407l3.102-.799 3.424-.864 7.504-1.931 4.076-1.043a4921 4921 0 0 0 21.987-5.694l2.375-.62c19.967-5.216 39.864-10.687 59.755-16.184q4.101-1.134 8.201-2.264a15787 15787 0 0 0 15.801-4.37l2.576-.712a2156 2156 0 0 0 30.065-8.547l5.844-1.7c3.714-1.081 7.423-2.177 11.13-3.28l5.036-1.469 2.3-.698c3.98-1.144 6.903-1.688 10.897-.418M622.949 204.76c2.019-.01 4.036-.04 6.055-.072 18.278-.072 34.9 4.596 50.996 13.312v1H571c12.442-12.442 35.31-14.193 51.949-14.24M666 336c6.968 1.28 13.728 2.955 20.523 4.95l3.031.877q4.912 1.426 9.821 2.86 3.432.998 6.865 1.993 7.185 2.085 14.368 4.174a9651 9651 0 0 0 25.906 7.484l14.002 4.031 9.644 2.78 2.9.834 2.651.765 2.304.663c1.672.496 3.33 1.037 4.985 1.589v10c-7.092-1.858-14.048-3.94-20.973-6.344l-5.834-2.002-3.085-1.063c-21.019-7.235-42.103-14.252-63.233-21.154l-1.974-.644Q675.953 343.889 664 340zM495 817c1.18 2.926 1.18 2.926 1.875 6.313l.742 3.363c.711 6.176-.733 10.475-4.094 15.554-3.024 3.514-6.54 4.373-11.023 5.27-5.064-1.013-8.52-4.108-11.437-8.25-1.697-5.19-1.66-9.911-.313-15.187 1.552-2.562 2.379-3.21 5.25-4.063 6.22-.546 6.22-.546 8.875 1.313 2.51 3.764 2.423 7.298 2.125 11.687-1.577 3.98-2.41 5.607-6 8 3.313-.062 3.313-.062 7-1 3.485-5.284 3.736-10.794 3-17-1-3-1-3-3-5-2.68-.999-5.161-1.488-8-2 4.829-4.829 10.046-2.679 15 1M499 371c-.582.27-1.163.54-1.762.82-14.068 6.567-27.804 13.565-41.356 21.14-4.134 2.285-7.606 2.19-12.257 2.165l-2.52-.006c-9.383-.063-18.74-.566-28.105-1.119 2.972-1.981 5.027-2.69 8.44-3.6l3.382-.912 3.674-.972 5.771-1.552q4.06-1.087 8.123-2.169a8014 8014 0 0 0 15.914-4.258q2.903-.78 5.805-1.554c8.39-2.26 16.725-4.654 24.984-7.357 3.747-1.186 6.152-1.81 9.907-.626" id="svg-layer-6" style="pointer-events: all;"/><path fill="#F4ECE3" d="M494 809c1.687.613 3.348 1.297 5 2l3.625 1.188c2.952 1.688 3.396 2.872 4.523 6.164 2.15 9.21 2.315 16.455-2.023 25.023l-1.555 3.148C502 849 502 849 499 850c.37-4.341 1.067-7.25 3.188-11.062 3.28-6.881 1.182-14.708-1.079-21.688-1.162-2.357-2.147-3.447-4.234-5L494 810z" id="svg-layer-7" style="pointer-events: all;"/><path fill="#34373C" d="M878.188 406c2.812 1 2.812 1 4.812 4-.453 6.453-.453 6.453-3 9-4.053.345-5.548.302-9-2-1-2.812-1-2.812-1-6 2.524-3.594 3.71-5 8.188-5" id="svg-layer-8" style="pointer-events: all;"/><path fill="#F4ECE3" d="M716 783c-8.029 5.353-19.144 7.827-28.625 6.313-1.8-.398-3.598-.82-5.375-1.313 3.223-1.855 6.004-2.425 9.684-2.852l3.31-.39 3.443-.383 3.432-.406c4.738-.547 9.356-1.05 14.131-.969M534 784c11.084.521 22.008 1.476 33 3v1c-12.954 2.39-20.661 1.421-33-3zM478.438 768.5 481 770l1.867 1.04c1.725.962 3.43 1.959 5.133 2.96v1l-22 1c8.34-8.34 8.34-8.34 12.438-7.5" id="svg-layer-9" style="pointer-events: all;"/></svg>