<svg xmlns="http://www.w3.org/2000/svg" width="1254" height="1080" viewBox="0 0 1254 1080"><path fill="#FDF4E5" d="m768 230 2.47 1.13C812.764 250.767 854.7 282.643 883 320q1.53 1.958 3.066 3.914C923.156 371.43 946.024 427.384 954 487l.394 2.839C964.076 562.663 944.258 636.088 908 699l-1.438 2.508c-8.298 14.337-17.507 28.088-26.687 41.867l-1.802 2.707C870.226 757.85 862.226 769.494 854 781l-1.93 2.704a1433 1433 0 0 1-4.445 6.171l-1.603 2.216c-9.72 13.413-19.59 26.714-29.55 39.949q-2.255 3.005-4.5 6.019a1052 1052 0 0 1-18.613 24.223c-2.294 2.9-4.576 5.81-6.859 8.718l-2.758 3.508q-2.716 3.456-5.422 6.922c-6.995 8.948-14.125 17.782-21.32 26.57l-1.764 2.155c-7.231 8.826-14.52 17.6-21.914 26.289a1950 1950 0 0 0-4.025 4.755 3141 3141 0 0 1-17.25 20.25 2660 2660 0 0 0-6.156 7.196c-4.469 5.236-8.945 10.45-13.578 15.543a202 202 0 0 0-8.438 9.937c-4.527 5.604-9.419 10.824-14.383 16.042a355 355 0 0 0-10.84 11.942c-2.395 2.741-4.861 5.413-7.34 8.078l-3.109 3.356-1.592 1.716q-2.444 2.64-4.877 5.292l-1.61 1.751q-1.515 1.647-3.027 3.296A724 724 0 0 1 633 1050l-2.535 2.875C628 1055 628 1055 625.635 1055.389c-3.556-.525-4.759-1.925-7.252-4.483l-2.59-2.625-2.668-2.781-2.645-2.687c-4.405-4.505-8.665-9.097-12.777-13.87-3.133-3.575-6.428-6.999-9.703-10.443-4.586-4.823-9.09-9.69-13.45-14.718-1.94-2.23-3.93-4.413-5.925-6.595-3.11-3.44-6.09-6.95-9-10.562-3.68-4.553-7.551-8.86-11.536-13.142-3.803-4.11-7.332-8.406-10.843-12.768-2.334-2.822-4.766-5.52-7.246-8.215-4.057-4.413-7.887-8.955-11.652-13.617-2.576-3.163-5.205-6.276-7.848-9.383-4.905-5.776-9.721-11.619-14.5-17.5l-3.062-3.75a1468 1468 0 0 1-19.608-24.55q-2.644-3.376-5.299-6.743A4720 4720 0 0 1 447 850l-1.354-1.745c-11.988-15.452-23.65-31.143-35.049-47.033q-2.431-3.379-4.874-6.75l-1.668-2.302-3.04-4.192c-10.282-14.211-20.238-28.623-29.952-43.228l-1.722-2.585c-11.76-17.675-23.145-35.446-33.238-54.136a414 414 0 0 0-3.11-5.603C316.422 652.476 305.256 619.594 299 586l-.498-2.66c-.99-5.43-1.793-10.868-2.502-16.34l-.312-2.23C285.202 487.893 306.995 405.356 351 342l2.262-3.285C363.095 324.59 374.05 311.38 386 299l1.806-1.873c6.873-7.085 13.783-13.93 21.553-20.041 2.764-2.183 5.413-4.473 8.079-6.774C437.269 253.847 459.722 240.948 483 230l2.101-.994c11.696-5.49 23.607-10.037 35.899-14.006l2.724-.887C603.762 188.43 691.845 195.05 768 230" id="svg-layer-1" style="pointer-events: all;"/><path fill="#FDF4E5" d="M798.559 417.184c10.292 9.736 17.11 21.556 17.75 35.89.204 9.457-.166 18.683-2.309 27.926l2.5-.105c22.521-.528 42.613 6.168 59.227 21.812 16.122 16.26 21.586 36.396 21.773 58.73-.163 25.19-7.392 49.49-24.5 68.563l-2.46 2.746c-16.585 17.533-40.174 27.656-64.331 28.332-3.07.02-6.139.01-9.209-.015l-5.887-.034L786 661l-.289 1.697a2041 2041 0 0 1-8.01 44.114q-.644 3.34-1.271 6.682c-4.508 23.989-10.7 45.036-31.43 60.132-35.595 23.876-83.703 26.59-125.375 26.625l-2.534.003c-43.486-.035-99.34-2.487-132.747-33.886-10.256-10.358-16.56-21.815-19.794-35.959l-.644-2.769c-2.337-10.227-4.203-20.532-6.023-30.862l-1.134-6.352a8237 8237 0 0 1-3.004-16.968q-.938-5.32-1.88-10.639C443.462 615.286 435.435 567.694 428 520l-.345-2.21a2356 2356 0 0 1-3.644-24.14q-.435-2.989-.88-5.975c-1.438-9.688-2.352-19.204-2.397-29.007l-.014-2.612c.073-7.24 1.359-13.377 4.28-20.056l1.063-2.434c11.876-23.794 38.918-34.44 62.542-42.45 80.627-26.184 181.903-24.849 309.954 26.068" id="svg-layer-2" style="pointer-events: all;"/><path fill="#323A41" d="M864.375 257.75 869 262l5 4.438c7.84 7.064 15.173 14.517 22 22.562l2.383 2.719C910.426 305.553 921.145 320.54 931 336l2.121 3.313C966.708 392.976 983.62 454.083 986 517l.105 2.693C988.47 591.332 965.757 660.22 929 721l-3.648 6.09c-6.05 10.06-12.22 20.007-18.844 29.7-1.835 2.689-3.657 5.387-5.48 8.085C892.814 777.011 884.532 789.087 876 801l-1.576 2.204a1466 1466 0 0 1-21.94 29.828c-1.999 2.65-3.99 5.307-5.981 7.963l-4.51 6.013a3099 3099 0 0 0-5.923 7.922c-7.024 9.416-14.185 18.718-21.425 27.968a3874 3874 0 0 0-4.52 5.79c-5.348 6.848-10.79 13.614-16.285 20.345a751 751 0 0 0-10.465 13.154c-4.034 5.176-8.201 10.215-12.464 15.203a323 323 0 0 0-7.848 9.548c-4.19 5.284-8.587 10.38-12.989 15.488-2.878 3.34-5.73 6.703-8.574 10.074A2892 2892 0 0 1 724 993l-1.635 1.9c-6.297 7.317-12.646 14.567-19.166 21.686-2.517 2.764-4.976 5.574-7.43 8.394-3.545 4.047-7.165 8.026-10.769 12.02l-2.187 2.438a1699 1699 0 0 1-16.208 17.818q-1.71 1.86-3.414 3.726c-21.62 23.681-21.62 23.681-35.849 24.52-11.508.333-20.17-3.79-28.565-11.67-2.351-2.424-4.549-4.954-6.73-7.531-3.023-3.398-6.265-6.564-9.52-9.737-3.42-3.36-6.584-6.882-9.72-10.507-2.967-3.377-6.083-6.613-9.182-9.87-5.035-5.325-9.82-10.743-14.387-16.48-2.632-3.183-5.415-6.193-8.238-9.207-4.459-4.76-8.638-9.665-12.723-14.754-2.495-3.01-5.115-5.885-7.777-8.746-4.21-4.53-8.176-9.203-12.055-14.02-2.915-3.553-5.923-7.017-8.945-10.48-4.443-5.1-8.809-10.246-13.066-15.504a955 955 0 0 0-5.711-6.96c-5.96-7.201-11.87-14.43-17.614-21.804-3.433-4.4-6.948-8.727-10.484-13.044-5.073-6.205-9.98-12.52-14.822-18.907a551 551 0 0 0-10.74-13.656c-5.198-6.428-10.113-13.043-14.99-19.716a564 564 0 0 0-10.135-13.471c-5.608-7.24-10.933-14.676-16.27-22.116a1727 1727 0 0 0-4.895-6.771c-10.149-13.982-20.224-28.034-29.734-42.461a962 962 0 0 0-4.766-7.149A1089 1089 0 0 1 325 728l-1.19-1.906c-52.097-83.798-72.62-181.483-51.244-278.469C279.648 417.359 290.51 388.479 305 361l1.189-2.281c14.47-27.628 32.86-52.5 53.827-75.512a182 182 0 0 0 5.046-5.894c2.657-3.13 5.621-5.72 8.747-8.372 2.45-2.17 4.718-4.472 7.003-6.816 4.582-4.617 9.379-8.771 14.492-12.788 1.942-1.53 3.869-3.079 5.798-4.626C416.81 232.202 433.493 221.796 451 212c.711-.4 1.422-.8 2.155-1.21C487.28 191.754 525.515 179.313 564 173l2.506-.42c105.94-17.496 217.764 13.3 297.869 85.17m-391.518-22.731a383 383 0 0 1-5.931 3.051C429.916 256.982 394.663 285.18 369 318a931 931 0 0 1-2.79 3.379C358.437 330.809 351.56 340.69 345 351l-1.206 1.888C316.454 396.086 300.368 445.256 295 496l-.286 2.654c-8.63 89.977 25.663 170.231 74.64 243.508a4061 4061 0 0 1 4.935 7.408A1167 1167 0 0 0 396 781l1.933 2.708q2.213 3.09 4.442 6.167l1.608 2.223a2758 2758 0 0 0 15.47 21.097q3.59 4.86 7.156 9.735c6.138 8.382 12.353 16.676 18.813 24.812A700 700 0 0 1 453 857.5a1600 1600 0 0 0 13.227 16.977q2.721 3.452 5.421 6.921c5.602 7.186 11.332 14.252 17.147 21.267a581 581 0 0 1 11.08 13.835 227 227 0 0 0 11.184 13.316c2.117 2.382 4.124 4.832 6.128 7.309 4.7 5.789 9.577 11.41 14.473 17.031a1458 1458 0 0 1 9.59 11.157 498 498 0 0 0 10.438 11.875 207 207 0 0 1 8.5 10c4.906 6.07 10.242 11.702 15.593 17.378 2.882 3.061 5.665 6.192 8.41 9.375 3.952 4.499 8.054 8.864 12.13 13.25q2.592 2.794 5.179 5.594 4.388 4.736 8.82 9.431 1.65 1.753 3.29 3.517c1.471 1.58 2.959 3.145 4.452 4.705l2.536 2.683C623 1055 623 1055 625.41 1055.661c4.034-1.03 6.176-3.68 8.965-6.661l1.633-1.676c3.527-3.653 6.869-7.455 10.198-11.289 3.623-4.11 7.421-8.058 11.189-12.035a396 396 0 0 0 11.006-12.17c2.115-2.42 4.293-4.781 6.474-7.143 3.29-3.6 6.445-7.26 9.5-11.062 3.389-4.203 6.937-8.187 10.625-12.125 4.5-4.805 8.731-9.752 12.855-14.887 2.144-2.611 4.369-5.117 6.645-7.613 3.825-4.2 7.421-8.544 10.992-12.96 2.896-3.51 5.885-6.93 8.883-10.352a351 351 0 0 0 13.535-16.495c3.198-4.117 6.538-8.078 9.965-12.005 4.983-5.727 9.62-11.665 14.192-17.721a484 484 0 0 1 11.62-14.717c5.58-6.814 10.975-13.744 16.313-20.75l3.64-4.715c13.787-17.85 27.176-36.015 40.344-54.324a1763 1763 0 0 1 8.03-11.088c7.387-10.123 14.49-20.406 21.416-30.85q2.45-3.688 4.908-7.369C914.974 690.654 944.9 634.34 954 568l.36-2.594C961.937 507.588 951.732 446.989 928 394l-1.417-3.189c-9.733-21.666-21.363-42.421-36.179-61.038a340 340 0 0 1-4.17-5.398C871.824 305.51 854.806 287.483 836 273a806 806 0 0 1-3.469-2.844C785.508 231.538 727.004 208.884 667 201l-2.72-.36c-64.608-8.065-133.89 3.758-191.423 34.379" id="svg-layer-3" style="pointer-events: all;"/><path fill="#323A41" d="M462 480c3.869 1.257 7.551 2.654 11.247 4.36 76.171 34.956 186.065 31.798 278.916 4.858 7.154-2.672 14.036-5.75 20.837-9.218h2c-7.565 57.302-16.982 114.341-26.931 171.273l-1.3 7.45c-1.48 8.471-2.98 16.937-4.52 25.396q-1.08 5.91-2.12 11.826-1.093 6.198-2.236 12.385-.425 2.329-.828 4.661c-1.93 11.122-4.676 21.504-14.069 28.716-13.061 8.46-29.894 11.717-44.996 14.543l-2.398.457c-18.412 3.221-36.957 3.666-55.602 3.606l-3.526-.006c-80.012-.21-80.012-.21-103.474-20.307l-1.98-1.687c-6.825-6.305-8.501-13.517-10.122-22.387l-.586-3.11c-.655-3.499-1.297-7.001-1.937-10.504l-.694-3.756c-10.323-55.971-19.777-112.135-28.556-168.369l-.598-3.82A1545 1545 0 0 1 462 480" id="svg-layer-4" style="pointer-events: all;"/><path fill="#323940" d="M798.559 417.184c10.292 9.736 17.11 21.556 17.75 35.89.204 9.457-.166 18.683-2.309 27.926l2.5-.105c22.521-.528 42.613 6.168 59.227 21.812 16.122 16.26 21.586 36.396 21.773 58.73-.163 25.19-7.392 49.49-24.5 68.563l-2.46 2.746c-16.585 17.533-40.174 27.656-64.331 28.332-3.07.02-6.139.01-9.209-.015l-5.887-.034L786 661l-.289 1.697a2041 2041 0 0 1-8.01 44.114q-.644 3.34-1.271 6.682c-4.508 23.989-10.7 45.036-31.43 60.132-35.595 23.876-83.703 26.59-125.375 26.625l-2.534.003c-43.486-.035-99.34-2.487-132.747-33.886-10.256-10.358-16.56-21.815-19.794-35.959l-.644-2.769c-2.337-10.227-4.203-20.532-6.023-30.862l-1.134-6.352a8237 8237 0 0 1-3.004-16.968q-.938-5.32-1.88-10.639C443.462 615.286 435.435 567.694 428 520l-.345-2.21a2356 2356 0 0 1-3.644-24.14q-.435-2.989-.88-5.975c-1.438-9.688-2.352-19.204-2.397-29.007l-.014-2.612c.073-7.24 1.359-13.377 4.28-20.056l1.063-2.434c11.876-23.794 38.918-34.44 62.542-42.45 80.627-26.184 181.903-24.849 309.954 26.068M451 437c-7.56 8.891-8.473 17.76-8 29 .444 5.002 1.112 9.967 1.813 14.938l.316 2.292c9.08 65.654 20.767 131.003 32.367 196.248q.75 4.219 1.496 8.437a7367 7367 0 0 0 2.374 13.326q.44 2.455.874 4.912c6.433 36.331 6.433 36.331 22.26 48.82 15.59 10.555 34.946 15.074 53.25 18.215l2.697.469c19.479 3.136 38.985 3.716 58.678 3.655l3.664-.004c17.59-.039 34.823-.44 52.211-3.308l2.84-.438c20.577-3.225 46.502-8.493 61.16-24.562l1.852-1.98c10.89-12.721 12.447-30.206 15.336-46.082q.37-2.014.744-4.027c12.226-66.11 23.172-132.547 32.667-199.104q.626-4.38 1.26-8.758l.82-5.697.376-2.594C792.9 474.85 793.66 468.96 794 463l.195-2.488c.4-8.585-1.92-16.218-7.508-22.824-31.788-34.252-96.198-38.695-140.313-40.491C589.377 395.167 494.052 392.125 451 437" id="svg-layer-5" style="pointer-events: all;"/><path fill="#81471E" d="M770.813 445.496c2.637 3.02 3.152 4.645 3.363 8.527-.315 3.537-1.663 5.635-4.176 7.977-54.805 41.756-157.605 34.16-222.272 25.471-67.641-9.45-67.641-9.45-82.728-28.471-1.866-3.94-2.324-5.802-1.187-10 16.196-22.212 57.15-25.988 82.187-30 17.313-2.485 34.712-3.937 52.188-4.562l3.267-.131c49.296-1.818 130.181-3.58 169.357 31.19" id="svg-layer-6" style="pointer-events: all;"/><path fill="#FDF4E5" d="M810 510c16.66-.584 32.113.874 45.188 12.375 8.104 8.723 13.098 20.828 13.812 32.625l.207 3.031c.664 19.863-5.385 40.187-19.059 54.965-16.636 15.518-36.87 19.68-59.148 19.004.58-7.478 1.524-14.816 2.785-22.207l1.098-6.581.583-3.47c3.974-23.677 7.633-47.39 11.058-71.153l.485-3.341q.448-3.096.888-6.193l.398-2.744.342-2.39C809 512 809 512 810 510" id="svg-layer-7" style="pointer-events: all;"/></svg>